<svg xmlns="http://www.w3.org/2000/svg" width="37" height="22" viewBox="0 0 74 44">
    <path fill="#EB4D42" d="M 292.8 15.8 l 19.2 6 c -0.1 -0.3 -0.1 -0.7 -0.2 -1 l -18.3 -5.7 C 293.3 15.3 293 15.6 292.8 15.8 Z M 291.8 23 c -0.2 0 -0.3 -0.1 -0.4 -0.2 c -0.2 -0.4 -0.7 -0.7 -1.1 -0.7 c -0.5 0 -0.9 0.3 -1.1 0.7 c -0.1 0.1 -0.2 0.2 -0.4 0.2 c -0.2 0 -0.3 -0.1 -0.4 -0.2 c -0.2 -0.4 -0.7 -0.7 -1.1 -0.7 s -0.9 0.3 -1.1 0.7 c -0.1 0.2 -0.4 0.3 -0.6 0.2 c -0.2 -0.1 -0.3 -0.4 -0.2 -0.6 c 0.4 -0.7 1.1 -1.1 1.9 -1.1 c 0.6 0 1.1 0.2 1.5 0.6 c 0.4 -0.4 1 -0.6 1.5 -0.6 c 0.8 0 1.5 0.4 1.9 1.1 c 0.1 0.2 0.1 0.5 -0.2 0.6 C 292 23 291.9 23 291.8 23 Z M 287 19.5 c -0.2 0 -0.3 -0.1 -0.4 -0.2 c -0.2 -0.4 -0.7 -0.7 -1.1 -0.7 c -0.5 0 -0.9 0.3 -1.1 0.7 c -0.1 0.1 -0.2 0.2 -0.4 0.2 c -0.2 0 -0.3 -0.1 -0.4 -0.2 c -0.2 -0.4 -0.7 -0.7 -1.1 -0.7 c -0.5 0 -0.9 0.3 -1.1 0.7 c -0.1 0.2 -0.4 0.3 -0.6 0.2 c -0.2 -0.1 -0.3 -0.4 -0.2 -0.6 c 0.4 -0.7 1.1 -1.1 1.9 -1.1 c 0.6 0 1.1 0.2 1.5 0.6 c 0.4 -0.4 1 -0.6 1.5 -0.6 c 0.8 0 1.5 0.4 1.9 1.1 c 0.1 0.2 0.1 0.5 -0.2 0.6 C 287.2 19.4 287.1 19.5 287 19.5 Z M 291.4 31.1 c 0.5 -0.8 1.4 -1.4 2.4 -1.4 s 1.9 0.5 2.4 1.4 c 0 0 0 0 0 0.1 h 1 l 3.8 -11.9 l -9.2 -2.9 c -0.1 0 -0.3 -0.2 -0.3 -0.3 c 0 -0.1 0 -0.3 0.1 -0.4 c 2.9 -3.3 7.4 -4.8 11.7 -3.9 c -0.1 -0.3 -0.1 -0.6 0 -0.9 c 0.1 -0.4 0.4 -0.7 0.7 -0.9 c 0.4 -0.2 0.8 -0.2 1.1 -0.1 c 0.4 0.1 0.7 0.4 0.9 0.7 c 0.2 0.4 0.2 0.8 0.1 1.1 l 0 0 c -0.1 0.3 -0.3 0.6 -0.5 0.7 c 4 1.7 6.9 5.5 7.3 9.9 c 0 0.1 0 0.3 -0.2 0.4 c -0.1 0.1 -0.2 0.1 -0.3 0.1 h -0.1 l -9.2 -2.9 l -3.6 11.2 h 11.6 c 0.2 0 0.4 0.2 0.4 0.4 c 0 0.2 -0.2 0.4 -0.4 0.4 H 292 c -0.1 0 -0.2 0 -0.2 -0.1 c -0.5 0.6 -1.3 0.9 -2 0.9 c -1 0 -1.9 -0.5 -2.4 -1.4 c -0.3 -0.6 -0.9 -0.9 -1.6 -0.9 c -0.6 0 -1.3 0.3 -1.6 0.9 c -0.5 0.8 -1.4 1.4 -2.4 1.4 s -1.9 -0.5 -2.4 -1.4 c -0.3 -0.6 -0.9 -0.9 -1.6 -0.9 c -0.6 0 -1.3 0.3 -1.6 0.9 c -0.1 0.2 -0.4 0.3 -0.6 0.2 c -0.2 -0.1 -0.3 -0.4 -0.2 -0.6 c 0.5 -0.8 1.4 -1.4 2.4 -1.4 s 1.9 0.5 2.4 1.4 c 0.3 0.6 0.9 0.9 1.6 0.9 c 0.6 0 1.3 -0.3 1.6 -0.9 c 0.5 -0.8 1.4 -1.4 2.4 -1.4 s 1.9 0.5 2.4 1.4 c 0.3 0.6 0.9 0.9 1.6 0.9 C 290.5 32 291.1 31.7 291.4 31.1 Z M 295.1 31.2 c -0.3 -0.3 -0.8 -0.5 -1.3 -0.5 s -1 0.2 -1.3 0.5 H 295.1 Z M 298.2 31.2 h 0.5 l 3.7 -11.5 l -0.4 -0.1 L 298.2 31.2 Z M 304.8 10.8 c -0.1 0 -0.2 0 -0.3 0.1 c -0.1 0.1 -0.2 0.2 -0.3 0.3 c -0.1 0.3 0.1 0.6 0.4 0.7 c 0.3 0.1 0.6 -0.1 0.7 -0.4 c 0 -0.1 0 -0.3 0 -0.4 c -0.1 -0.1 -0.2 -0.2 -0.3 -0.3 C 304.9 10.8 304.8 10.8 304.8 10.8 Z M 310.9 18.6 l -15.4 -4.9 c -0.4 0.2 -0.8 0.4 -1.1 0.7 l 17.1 5.4 C 311.3 19.4 311.1 19 310.9 18.6 Z M 296.7 13.2 l 13.5 4.3 c -1.4 -2.1 -3.5 -3.7 -6 -4.5 S 299.1 12.3 296.7 13.2 Z"/>
</svg>